<svg xmlns="http://www.w3.org/2000/svg" viewBox="0 0 512 512">
  <defs>
    <linearGradient id="grad1" x1="0%" y1="0%" x2="100%" y2="100%">
      <stop offset="0%" stop-color="#3b82f6" />
      <stop offset="100%" stop-color="#0f172a" />
    </linearGradient>
  </defs>
  <rect width="512" height="512" rx="112" fill="url(#grad1)" />
  <path d="M375.4 186.2C355.2 153.9 315.6 132 268 132C193.3 132 131 190.1 125.1 264H169.3C175 214.5 217.1 176 268 176C300 176 328.2 192.1 345 216L308 216V260H408V160H364V186.2Z" fill="#ffffff" />
  <path d="M136.6 325.8C156.8 358.1 196.4 380 244 380C318.7 380 381 321.9 386.9 248H342.7C337 297.5 294.9 336 244 336C212 336 183.8 319.9 167 296L204 296V252H104V352H148V325.8Z" fill="#38bdf8" />
  <text x="256" y="270" font-family="system-ui, -apple-system, sans-serif" font-size="120" font-weight="bold" font-style="italic" fill="#ffffff" text-anchor="middle" dominant-baseline="middle" letter-spacing="-5">SM</text>
</svg>
